<svg xmlns="http://www.w3.org/2000/svg" width="256" height="291" viewBox="0 0 256 291">
  <g fill="none">
    <polygon fill="#E44D26" points="255.555 .766 232.314 261.125 127.844 290.088 23.662 261.166 .445 .766"/>
    <polygon fill="#F16529" points="128 267.95 212.417 244.547 232.278 22.057 128 22.057"/>
    <polygon fill="#EBEBEB" points="82.82 85.932 128 85.932 128 53.995 47.917 53.995 48.681 62.563 56.531 150.573 128 150.573 128 118.636 85.739 118.636"/>
    <polygon fill="#EBEBEB" points="90.018 166.542 57.958 166.542 62.432 216.688 127.853 234.849 128 234.808 128 201.58 127.86 201.617 92.292 192.013"/>
    <polygon fill="#FFF" points="127.89 150.573 167.217 150.573 163.509 191.993 127.89 201.607 127.89 234.833 193.362 216.688 193.843 211.292 201.348 127.212 202.127 118.636 127.89 118.636"/>
    <polygon fill="#FFF" points="127.89 85.854 127.89 85.932 205.033 85.932 205.673 78.754 207.129 62.563 207.892 53.995 127.89 53.995"/>
  </g>
</svg>
